<?xml version="1.0" encoding="UTF-8"?><svg id="Camada_2" xmlns="http://www.w3.org/2000/svg" viewBox="0 0 99.1 19.95"><defs><style>.cls-1{fill:#b4adff;stroke-width:0px;}</style></defs><g id="Camada_2-2"><g id="Camada_1-2"><path class="cls-1" d="m0,2.44c.28-.59.54-.74,1.19-.67.17.02.17-.07.18-.19.03-.42.26-.63.69-.63h13c.35,0,.55-.07.58-.44,0-.07.04-.15.07-.23.15-.33.37-.38.61-.11.13.13.24.27.32.43.14.3.36.37.67.35.61-.02,1.23,0,1.84,0,.41,0,.41,0,.41.42v17.22c0,.35-.18.52-.55.52H2.1c-.35,0-.63.05-.84.37-.13.18-.32.32-.49.47h-.18c.05-.46.37-.8.6-1.17.11-.18.18-.35.18-.55V5.1c0-.21-.07-.37-.22-.52-.47-.49-.95-.99-1.16-1.66v-.47h0Zm9.16.24H3.46c-.11,0-.24-.03-.32.1-.1.17-.02.93.12,1.08,1.1,1.24,2.15,2.51,3.48,3.52.77.58,1.47,1.25,2.36,1.64.06.03.15.06.12.15-.03.08-.12.1-.2.1-.62.09-1.22.04-1.8-.24-1.36-.66-2.58-1.51-3.76-2.42-.09-.07-.17-.22-.29-.16-.1.06-.04.22-.04.33v9.38c0,.13-.07.29.06.35.1.04.19-.11.28-.18,2.05-1.73,4.41-2.77,7.03-3.29,1.98-.4,3.98-.41,5.98-.27.21.01.43,0,.53-.22.1-.24-.05-.4-.22-.54-.4-.33-.86-.52-1.37-.61-.87-.17-1.74-.12-2.6.04-.94.18-1.84.55-2.8.69-.48.07-.96.15-1.44,0-.38-.12-.6-.38-.65-.77-.07-.59.29-.94.74-1.17,1.27-.66,2.35-1.57,3.39-2.53,1.39-1.3,2.36-2.86,3.06-4.61.15-.36.11-.39-.27-.39h-5.69Zm1.5,14.72h6.81c.2,0,.39,0,.38-.28v-2.91c0-.18-.06-.24-.24-.16-.5.21-1.03.18-1.55.12-1.48-.18-2.97-.24-4.45-.07-2.1.24-4.08.89-5.95,1.87-.69.36-1.33.8-1.94,1.25-.04.03-.13.05-.1.13.02.06.1.04.16.04h6.89Zm7.2-10.25V3.02c0-.15.02-.33-.21-.35-.21-.01-.35.04-.39.29-.07.47-.22.92-.44,1.35-.7,1.32-1.61,2.49-2.61,3.6-1.18,1.3-2.69,2.14-4.24,2.9-.13.07-.27.13-.39.21-.07.04-.17.1-.13.21.03.09.13.07.21.07.24,0,.47,0,.71-.04,1.02-.19,2.03-.45,3.07-.52,1.44-.1,2.84,0,4.12.74.3.17.32.16.32-.19v-4.13h0Z"/><path class="cls-1" d="m46.92,9.88c0,1.34-.22,2.48-.75,3.54-.76,1.52-1.94,2.53-3.58,3-1.48.43-2.96.39-4.41-.15-1.58-.59-2.7-1.69-3.32-3.25-.91-2.33-.83-4.63.42-6.83.93-1.62,2.4-2.49,4.23-2.75,1.45-.21,2.87-.06,4.19.64,1.69.89,2.61,2.34,3.03,4.15.13.59.21,1.19.19,1.64Zm-3.41.08c.02-.67-.09-1.36-.38-2-.43-.95-1.13-1.55-2.22-1.64-1.19-.1-2.16.29-2.7,1.38-.77,1.55-.77,3.16.02,4.71.51.99,1.41,1.41,2.51,1.36,1.05-.04,1.81-.55,2.29-1.49.36-.71.49-1.47.47-2.31h0Z"/><path class="cls-1" d="m57.58,16.42c-.46,0-.91-.02-1.37,0-.29.01-.42-.1-.5-.37-.17-.54-.37-1.07-.55-1.6-.07-.21-.16-.3-.4-.3-1.27,0-2.54,0-3.81,0-.21,0-.32.07-.39.27-.19.57-.41,1.13-.6,1.71-.07.2-.16.29-.38.29-.97,0-1.92,0-2.89,0-.27,0-.29-.1-.21-.32,1.52-4.06,3.04-8.11,4.56-12.18.08-.22.2-.3.43-.3.92,0,1.84,0,2.77,0,.23,0,.35.07.44.29,1.51,4.05,3.03,8.1,4.55,12.15.13.33.12.35-.24.35h-1.43,0Zm-4.75-4.78c.38,0,.77,0,1.16,0,.22,0,.24-.07.18-.27-.41-1.29-.82-2.58-1.22-3.87-.01-.05,0-.13-.09-.13-.02,0-.05.08-.07.13-.43,1.3-.85,2.62-1.27,3.92-.06.19.01.22.18.22h1.13Z"/><path class="cls-1" d="m27.19,13.97v-1.96c0-.24-.05-.44-.18-.65-1.43-2.45-2.86-4.91-4.29-7.37-.06-.1-.18-.2-.11-.32.07-.11.22-.06.33-.06h3.09c.24,0,.38.09.48.31.73,1.52,1.47,3.02,2.22,4.53.04.07.05.21.15.19.09,0,.1-.13.15-.21.75-1.52,1.5-3.04,2.24-4.55.09-.19.2-.27.41-.27h3.18c.35,0,.37.05.18.35-1.43,2.45-2.86,4.91-4.29,7.37-.12.21-.18.41-.17.65,0,1.35,0,2.69,0,4.04,0,.29-.09.4-.39.39-.89-.01-1.78-.01-2.67,0-.26,0-.35-.08-.35-.34.01-.7,0-1.41,0-2.11Z"/><path class="cls-1" d="m67.08,13.6v-2.43c0-.25.09-.35.35-.35.84,0,1.69,0,2.53.05.63.04,1.09.39,1.25.93.18.59,0,1.15-.52,1.55-.08.07-.2.1,0,.18.73.29.9.95.79,1.61-.12.69-.71,1.23-1.43,1.26-.9.03-1.8,0-2.7.01-.26,0-.25-.17-.25-.34v-2.46h0Zm1.91,2.14h.77c.57-.01.93-.37.94-.9.01-.55-.31-.9-.9-.92-.55-.02-1.09,0-1.64,0-.17,0-.26.07-.26.24v1.33c0,.2.1.26.28.26h.8,0Zm-.08-2.54h0c.24,0,.48,0,.71,0,.56-.03.85-.31.85-.82s-.26-.8-.83-.83c-.49-.02-.97,0-1.46-.01-.21,0-.28.1-.28.29v1.1c0,.21.09.29.29.28.24,0,.48,0,.71,0Z"/><path class="cls-1" d="m86.53,7.29v1.1c0,.13.01.28.2.27.18,0,.21.1.21.24,0,.15-.02.29-.2.35-.35.12-.68.01-.85-.31-.08-.15-.15-.12-.25-.04-.44.38-.97.42-1.52.36-.58-.06-.95-.46-1.02-1.02-.06-.54.24-.99.77-1.19.44-.16.91-.2,1.36-.28.41-.07.57-.21.56-.49-.01-.32-.24-.53-.62-.56-.15-.01-.32-.01-.47,0-.35.02-.6.16-.71.52-.07.22-.32.31-.58.22-.26-.09-.13-.28-.09-.42.15-.58.71-.93,1.51-.98h.32c.99.05,1.36.43,1.36,1.43v.8h0Zm-.72.31q0-.38-.37-.31c-.19.04-.39.07-.58.09-.26.04-.51.07-.73.22-.35.24-.35.77.01.96.72.4,1.66-.15,1.67-.97h0Z"/><path class="cls-1" d="m97.57,7.43h-1.16c-.24,0-.32.1-.27.33.1.47.47.83.99.9.51.07.9-.11,1.14-.55.1-.18.52-.29.67-.18.11.07.05.18.02.27-.18.51-.52.88-1.04,1.02-1.29.32-2.32-.24-2.53-1.6-.12-.77.02-1.47.58-2.03.94-.94,2.5-.57,2.95.68.1.27.15.53.17.81.02.25-.07.37-.34.36-.4,0-.8,0-1.19,0h0Zm-.38-.66h.86c.24,0,.29-.1.23-.32-.14-.45-.58-.75-1.1-.74-.49,0-.9.33-1.02.8-.05.18,0,.27.2.26h.83Z"/><path class="cls-1" d="m84.55,14.62h-1.22c-.2,0-.26.1-.24.28.07.47.43.86.9.94.6.1,1-.07,1.25-.55.1-.18.52-.29.67-.17.1.08.04.18,0,.27-.23.77-1.05,1.24-1.94,1.11-.86-.13-1.38-.61-1.58-1.47-.19-.85-.08-1.64.57-2.27.9-.86,2.39-.56,2.87.59.13.31.21.63.21.98,0,.22-.09.3-.3.29-.41,0-.81,0-1.22,0h0Zm-.35-.66h0c.28,0,.55,0,.83,0,.24.01.29-.09.23-.3-.14-.44-.59-.77-1.06-.76-.49,0-.93.35-1.06.81-.05.2.02.25.2.25h.86Z"/><path class="cls-1" d="m78.91,13.6c0-.79,0-1.58,0-2.37,0-.27.04-.42.37-.42s.36.18.36.43v2.43c0,.09-.04.21.04.25.1.05.15-.07.21-.13.45-.42.89-.85,1.33-1.27.15-.14.77-.26.96-.16.16.09.01.15-.03.19-.38.35-.74.71-1.14,1.04-.2.17-.24.29-.08.52.46.66.9,1.33,1.34,2,.04.07.14.14.1.24-.05.1-.16.04-.24.06-.4.07-.66-.09-.86-.44-.27-.47-.6-.91-.88-1.37-.12-.19-.21-.2-.39-.05-.25.22-.38.46-.35.8.03.27,0,.53,0,.8,0,.29-.19.27-.38.27-.21,0-.34-.03-.34-.29,0-.84,0-1.68,0-2.52h0Z"/><path class="cls-1" d="m76.31,12.29c1.22,0,2,.82,2,2.09s-.8,2.13-1.97,2.14c-1.19,0-2-.87-2-2.14,0-1.27.78-2.08,1.97-2.08Zm1.22,2.12c.02-.25-.03-.52-.13-.77-.19-.45-.53-.71-1.02-.74-.49-.02-.87.2-1.08.64-.27.57-.27,1.15.01,1.71.2.38.53.6.98.6.46,0,.8-.2,1.02-.58.15-.26.22-.55.21-.87h0Z"/><path class="cls-1" d="m90.57,12.29c.36-.03.71.04,1.03.21.25.13.42.34.49.6.04.15.2.35-.04.46-.23.11-.54,0-.62-.21-.21-.56-1.23-.55-1.54-.27-.21.19-.17.49.09.65.25.15.54.2.82.26.29.07.58.13.85.24.41.16.69.45.71.91.02.43-.12.81-.51,1.04-.75.43-1.52.46-2.3.07-.33-.16-.52-.45-.6-.8-.03-.13-.1-.31.1-.34.19-.03.45-.15.58.13.29.6,1.17.85,1.74.49.32-.21.3-.65-.05-.85-.27-.15-.56-.19-.85-.25-.29-.07-.58-.13-.85-.26-.38-.18-.62-.47-.63-.9,0-.42.19-.74.55-.95.32-.18.66-.25,1.03-.23h0Z"/><path class="cls-1" d="m74.41,9.28c-.34.03-.69-.04-1.02-.21-.34-.18-.55-.45-.63-.82-.03-.13-.12-.31.09-.34.19-.02.45-.14.58.13.32.6,1.17.84,1.75.46.31-.2.29-.65-.04-.83-.24-.13-.5-.18-.77-.24-.38-.09-.78-.15-1.12-.38-.54-.35-.62-1.11-.16-1.57.58-.58,1.97-.58,2.55,0,.1.11.21.22.24.37.04.16.23.36-.03.49-.22.12-.53,0-.64-.22-.24-.44-1.16-.58-1.52-.23-.2.19-.18.44.05.61.21.15.45.2.69.26.35.09.71.15,1.06.29.41.17.64.46.67.9s-.14.8-.51,1.04-.79.32-1.25.29h0Z"/><path class="cls-1" d="m68.8,7.19v-1.72c0-.18.03-.32.26-.3.18.01.45-.1.46.25,0,.18.07.18.18.07.22-.23.5-.36.81-.41.77-.1,1.57.14,1.66,1.16.08.92.03,1.83.02,2.76,0,.3-.27.19-.43.21-.2.02-.28-.07-.28-.28v-2.25c0-.59-.21-.91-.63-.96-.63-.07-1.12.23-1.26.78-.04.18-.06.35-.06.53,0,.6,0,1.21,0,1.81,0,.28-.08.38-.37.38-.3,0-.37-.13-.36-.4.01-.55,0-1.09,0-1.63Z"/><path class="cls-1" d="m87.36,7.18v-1.66c0-.19,0-.36.27-.35.22,0,.43-.02.41.31,0,.05-.02.13.05.15.03,0,.08-.04.12-.08.42-.46.94-.55,1.52-.44.56.1.88.41.97.98.14.97.05,1.93.06,2.9,0,.27-.22.22-.4.23-.17,0-.32-.01-.32-.24v-2.31c0-.55-.21-.85-.6-.93-.55-.1-1.06.15-1.25.63-.08.21-.1.42-.1.64,0,.63,0,1.27,0,1.9,0,.27-.12.33-.36.33-.23,0-.38-.04-.37-.32.01-.57,0-1.15,0-1.72h0Z"/><path class="cls-1" d="m80.06,7.2v1.69c0,.19-.04.33-.27.32-.21,0-.42.02-.4-.29,0-.05.02-.13-.04-.15-.07-.03-.1.04-.14.09-.43.47-1,.49-1.57.38-.57-.1-.9-.55-.92-1.19-.02-.87,0-1.74,0-2.61,0-.29.18-.27.38-.28.22,0,.35.04.35.31,0,.73,0,1.47,0,2.2s.22.98.77,1c.62.02,1.11-.4,1.13-1.01.02-.69,0-1.38.01-2.08,0-.38.24-.54.6-.4.15.06.13.19.13.3v1.72h-.01Z"/><path class="cls-1" d="m93.21,9.29c-1.24.04-1.94-.86-1.91-2.17,0-.18.04-.38.08-.56.34-1.49,1.77-1.76,2.79-1.29.39.18.63.5.75.91.06.21.03.32-.22.32-.27,0-.46-.01-.58-.32-.14-.36-.48-.46-.85-.46-.43,0-.79.15-.99.55-.29.59-.3,1.2-.04,1.8.19.44.57.62,1.04.6.46-.02.78-.24.94-.69.09-.27.41-.39.66-.27.14.07.1.18.07.28-.2.85-.81,1.3-1.74,1.3h0Z"/><path class="cls-1" d="m63.52,10.04v8.93c0,.1-.03.18-.15.18-.11,0-.15-.07-.16-.17V1.37c0-.15-.1-.43.17-.42.24,0,.14.27.14.41v8.69h0Z"/><path class="cls-1" d="m67.91,6.45c0,.81-.01,1.62,0,2.43,0,.33-.18.33-.42.34-.25,0-.38-.05-.38-.35.01-1.64.01-3.26,0-4.9,0-.32.15-.35.41-.35.27,0,.4.05.4.36-.01.82,0,1.64,0,2.46h0Z"/><path class="cls-1" d="m80.82,7.16c0-.57,0-1.13,0-1.69,0-.29.15-.31.38-.31.24,0,.36.07.34.32v.12c0,.06,0,.15.02.17.09.04.1-.07.14-.12.24-.35.59-.52.99-.58.17-.02.32,0,.31.21-.01.19.13.46-.19.55-.99.24-1.25.55-1.27,1.61,0,.49-.01.97,0,1.45,0,.24-.08.33-.33.33-.24,0-.41-.04-.4-.33.01-.57,0-1.15,0-1.72h0Z"/><path class="cls-1" d="m72.13,14.37v-1.66c0-.24.06-.37.33-.36.25,0,.41.06.38.35,0,.09,0,.24.03.25.12.03.13-.11.2-.18.26-.29.56-.46.95-.48.14,0,.28.02.26.2-.02.18.14.49-.16.52-1.04.1-1.27.84-1.26,1.71,0,.46,0,.93,0,1.39,0,.27-.15.29-.36.29s-.37-.01-.37-.29c0-.58,0-1.16,0-1.75Z"/><path class="cls-1" d="m86.58,14.37c0-.57,0-1.13,0-1.69,0-.26.1-.32.34-.32s.35.07.34.32c0,.11-.06.29.03.32.1.04.15-.15.22-.24.27-.28.56-.46.96-.48.14,0,.28.01.26.2s.14.44-.16.53c-1.08.33-1.26.57-1.27,1.7,0,.46,0,.93,0,1.39,0,.27-.15.3-.36.29-.21,0-.37-.01-.37-.29.01-.58,0-1.16,0-1.75h.01Z"/><path class="cls-1" d="m9.86,7.69c-.86,0-1.54-.67-1.53-1.52,0-.83.71-1.54,1.54-1.53.85,0,1.52.68,1.52,1.54s-.66,1.52-1.52,1.52h0Z"/><path class="cls-1" d="m15.07,9.69c-.35-.01-.69.05-1.03.18-.05.02-.12.06-.16,0-.04-.05,0-.11.04-.16.38-.58.8-1.13,1.28-1.63.13-.14.23-.11.33.04.41.55.77,1.13,1.1,1.72.03.06.1.13.05.18-.07.07-.15-.01-.21-.04-.44-.21-.9-.31-1.4-.29Z"/></g></g></svg>