<?xml version="1.0" encoding="UTF-8"?><svg id="Camada_2" xmlns="http://www.w3.org/2000/svg" viewBox="0 0 10.35 18.11"><defs><style>.cls-1{fill:#070736;stroke-width:0px;}</style></defs><g id="Camada_1-2"><path class="cls-1" d="m9.76,0c.42.2.59.54.58,1-.02.79,0,1.59,0,2.39,0,.6-.37.97-.97.97-.47,0-.94,0-1.41,0-.05,0-.09,0-.14,0-.43.01-.51.09-.51.53,0,.34,0,.67,0,1.01,0,.14.05.19.18.18.58,0,1.17,0,1.75,0,.49,0,.82.22.96.63.04.1.04.21.04.31,0,.91,0,1.83,0,2.74,0,.54-.38.92-.92.93-.59,0-1.19,0-1.78,0-.23,0-.23,0-.23.24,0,2.06,0,4.12,0,6.18,0,.5-.25.86-.68.98-.1.03-.2.02-.3.02-.91,0-1.83-.02-2.74,0-.54.01-1-.36-1-1.01,0-1.12,0-2.25,0-3.37,0-.94,0-1.88,0-2.83,0-.17-.04-.23-.22-.22-.45.01-.91,0-1.36,0-.61,0-.99-.34-1-.95-.02-.89-.02-1.79,0-2.69.01-.62.39-.97,1.02-.97.45,0,.9,0,1.34,0,.16,0,.22-.04.22-.21,0-.56-.02-1.12.03-1.68.15-1.62.83-2.9,2.29-3.71.46-.25.96-.38,1.47-.48h3.39Zm-3.58,13.53c0-1.05,0-2.11,0-3.16,0-.56.22-.79.78-.79.65,0,1.3,0,1.94,0,.17,0,.23-.05.22-.22,0-.65,0-1.31,0-1.96,0-.16-.04-.22-.21-.21-.69,0-1.38,0-2.07,0-.41,0-.66-.25-.67-.66,0-.56,0-1.12,0-1.68,0-.24.03-.47.12-.69.22-.57.67-.81,1.24-.88.5-.06,1-.02,1.5-.03.13,0,.19-.04.19-.18,0-.61,0-1.21,0-1.82,0-.14-.05-.19-.19-.19-.74.02-1.48-.05-2.22.01-.93.08-1.74.41-2.34,1.15-.53.65-.75,1.42-.78,2.24-.02.67,0,1.34,0,2.01,0,.47-.24.71-.7.71-.55,0-1.11,0-1.66,0-.16,0-.22.03-.22.21,0,.66,0,1.32,0,1.98,0,.16.05.22.21.21.53,0,1.06,0,1.59,0,.56,0,.78.23.78.78,0,2.14,0,4.29,0,6.43,0,.17.04.24.22.23.68-.01,1.37-.01,2.05,0,.18,0,.23-.06.23-.23,0-1.09,0-2.18,0-3.27Z"/></g></svg>